#!OML:ASF G:\JayActor3\Patient Classification 1\Patient 1\Session 6\male.ASF
:FULLY-SPECIFIED
:DEGREES
1151
root 6.69249 16.4896 -21.4212 -328.791 -41.6976 -10.7817
lowerback 27.9784 -1.61353 8.60025
upperback 4.32925 0.394467 1.12612
thorax -10.5625 -0.197687 -3.80621
lowerneck 9.32297 5.01212 2.75105
upperneck -21.1232 6.06542 -6.47601
head -7.72812 3.28435 -3.14879
rclavicle 3.51849e-014 8.94531e-015
rhumerus -46.4545 5.26585 -87.18
rradius 60.7647
rwrist -2.28841
rhand -22.6902 3.51226
rfingers 7.12502
rthumb 3.74228 -26.4346
lclavicle 3.51849e-014 8.94531e-015
lhumerus -54.5422 -16.0125 91.6544
lradius 64.25
lwrist 41.4763
lhand -22.9431 -5.38868
lfingers 7.12502
lthumb 3.49809 24.5624
rfemur -44.2192 -7.00409 31.277
rtibia 73.3387
rfoot -1.30691 -24.5068
rtoes -0.893188
lfemur -48.293 17.9572 -35.0414
ltibia 18.8881
lfoot -15.7465 -1.09521
ltoes -11.3834
1152
root 6.6331 16.4938 -21.3167 -329.056 -41.7843 -10.1976
lowerback 28.2177 -1.61853 8.11657
upperback 4.2293 0.25937 0.939237
thorax -10.8227 -0.255907 -3.69433
lowerneck 7.96104 5.02182 2.83021
upperneck -20.4889 6.08188 -6.4563
head -7.2714 3.27192 -3.08347
rclavicle 1.27222e-014 1.27222e-014
rhumerus -46.7836 5.42708 -87.3022
rradius 61.055
rwrist -2.49673
rhand -22.7951 3.4496
rfingers 7.12502
rthumb 3.64095 -26.499
lclavicle 1.27222e-014 1.27222e-014
lhumerus -54.9855 -16.1452 91.7562
lradius 64.2547
lwrist 41.4611
lhand -22.9448 -5.39198
lfingers 7.12502
lthumb 3.4964 24.5591
rfemur -46.7316 -6.4257 30.0146
rtibia 77.3209
rfoot -0.619205 -23.0105
rtoes -1.80007
lfemur -47.9893 18.6463 -36.1501
ltibia 18.5053
lfoot -15.3254 -1.62075
ltoes -10.8797
1153
root 6.57458 16.494 -21.221 -329.512 -41.7217 -9.40036
lowerback 28.5345 -1.6695 7.56796
upperback 4.13683 0.0497721 0.758522
thorax -11.1219 -0.34505 -3.50954
lowerneck 6.49178 5.02266 2.90414
upperneck -19.759 6.09044 -6.39598
head -6.77259 3.25067 -2.99878
rclavicle -6.36111e-015 -3.97569e-016
rhumerus -47.0823 5.47682 -87.3981
rradius 61.2799
rwrist -2.69293
rhand -22.9898 3.39012
rfingers 7.12502
rthumb 3.45293 -26.5617
lclavicle -6.36111e-015 -3.97569e-016
lhumerus -55.3263 -16.3331 91.8603
lradius 64.1741
lwrist 41.5209
lhand -22.9368 -5.40212
lfingers 7.12502
lthumb 3.50409 24.5488
rfemur -49.3056 -6.00557 28.6804
rtibia 81.3233
rfoot -0.621609 -21.7241
rtoes -3.21478
lfemur -47.5991 19.0537 -37.2179
ltibia 18.1773
lfoot -14.9232 -1.982
ltoes -10.4116
1154
root 6.51476 16.4906 -21.1359 -330.132 -41.4822 -8.40884
lowerback 28.9162 -1.7601 6.95861
upperback 4.05446 -0.227154 0.59419
thorax -11.4472 -0.460214 -3.24329
lowerneck 4.94153 5.01162 2.96275
upperneck -18.9519 6.08693 -6.28299
head -6.24487 3.21892 -2.89189
rclavicle 4.57205e-014 -7.79236e-014
rhumerus -47.3456 5.42974 -87.4711
rradius 61.4304
rwrist -2.88106
rhand -23.2443 3.34175
rfingers 7.12502
rthumb 3.20718 -26.6139
lclavicle 4.57205e-014 -7.79236e-014
lhumerus -55.5564 -16.6012 91.9688
lradius 64.0078
lwrist 41.6219
lhand -22.904 -5.41016
lfingers 7.12502
lthumb 3.53583 24.5403
rfemur -51.9385 -5.76448 27.3052
rtibia 85.2982
rfoot -1.01396 -20.6363
rtoes -4.65457
lfemur -47.155 19.2369 -38.2688
ltibia 17.9152
lfoot -14.5565 -2.30758
ltoes -9.95656
1155
root 6.45206 16.4837 -21.0612 -330.831 -41.0609 -7.29108
lowerback 29.3273 -1.87877 6.31732
upperback 3.97421 -0.550528 0.4556
thorax -11.7851 -0.591545 -2.90752
lowerneck 3.35333 4.98274 3.00822
upperneck -18.0933 6.06188 -6.12282
head -5.70486 3.17344 -2.76806
rclavicle 1.31198e-014 5.1684e-014
rhumerus -47.5793 5.31333 -87.5293
rradius 61.5047
rwrist -3.05688
rhand -23.5177 3.30607
rfingers 7.12502
rthumb 2.94319 -26.6534
lclavicle 1.31198e-014 5.1684e-014
lhumerus -55.6773 -16.9493 92.0815
lradius 63.7539
lwrist 41.7208
lhand -22.8501 -5.40985
lfingers 7.12502
lthumb 3.58783 24.5397
rfemur -54.6394 -5.69362 25.9425
rtibia 89.1823
rfoot -1.60293 -19.6615
rtoes -6.05305
lfemur -46.7291 19.2656 -39.3106
ltibia 17.7368
lfoot -14.2221 -2.69804
ltoes -9.43377
1156
root 6.38524 16.4739 -20.9946 -331.498 -40.4724 -6.15324
lowerback 29.8359 -2.02478 5.72429
upperback 3.48941 -0.884206 0.261328
thorax -11.8283 -0.71197 -2.47551
lowerneck 1.78569 4.92812 3.03626
upperneck -17.2254 6.00438 -5.91037
head -5.17656 3.11014 -2.62885
rclavicle 5.60573e-014 7.15625e-015
rhumerus -47.7841 5.15072 -87.5814
rradius 61.5017
rwrist -3.21991
rhand -23.7655 3.28632
rfingers 7.12502
rthumb 2.70383 -26.6763
lclavicle 5.60573e-014 7.15625e-015
lhumerus -55.6985 -17.3956 92.2076
lradius 63.4194
lwrist 41.7934
lhand -22.7766 -5.38394
lfingers 7.12502
lthumb 3.6588 24.5644
rfemur -57.3978 -5.77182 24.6659
rtibia 92.896
rfoot -2.33156 -18.6861
rtoes -7.51336
lfemur -46.3918 19.2095 -40.3226
ltibia 17.6636
lfoot -13.9277 -3.20672
ltoes -8.82158
1157
root 6.3142 16.4629 -20.9319 -332.031 -39.7586 -5.10258
lowerback 30.1444 -2.16351 5.19958
upperback 3.39212 -1.20693 0.203472
thorax -12.0964 -0.839813 -2.12813
lowerneck 0.268936 4.8457 3.04659
upperneck -16.3633 5.9096 -5.65983
head -4.66855 3.02877 -2.48067
rclavicle 7.55382e-015 5.68524e-014
rhumerus -47.9472 4.9826 -87.6369
rradius 61.4262
rwrist -3.39213
rhand -23.8988 3.2456
rfingers 7.12502
rthumb 2.5751 -26.7186
lclavicle 7.55382e-015 5.68524e-014
lhumerus -55.6255 -17.9278 92.339
lradius 63.0178
lwrist 41.8424
lhand -22.6899 -5.32983
lfingers 7.12502
lthumb 3.74259 24.6171
rfemur -60.197 -5.95503 23.5377
rtibia 96.3581
rfoot -3.12703 -17.708
rtoes -8.99857
lfemur -46.1846 19.1213 -41.2636
ltibia 17.706
lfoot -13.6842 -3.82051
ltoes -8.12845
